<mxfile>
    <diagram id="cRs7GRAzBUibELr6S2yF" name="Page-1">
        <mxGraphModel dx="882" dy="552" grid="1" gridSize="10" guides="1" tooltips="1" connect="1" arrows="1" fold="1" page="1" pageScale="1" pageWidth="1100" pageHeight="850" math="0" shadow="0">
            <root>
                <mxCell id="0"/>
                <mxCell id="1" parent="0"/>
                <mxCell id="11" style="edgeStyle=orthogonalEdgeStyle;rounded=0;orthogonalLoop=1;jettySize=auto;html=1;exitX=1;exitY=0.5;exitDx=0;exitDy=0;entryX=0;entryY=0.5;entryDx=0;entryDy=0;" parent="1" source="3" target="5" edge="1">
                    <mxGeometry relative="1" as="geometry"/>
                </mxCell>
                <mxCell id="3" value="service_balance&lt;br&gt;Nginx" style="whiteSpace=wrap;html=1;" parent="1" vertex="1">
                    <mxGeometry x="100" y="240" width="120" height="60" as="geometry"/>
                </mxCell>
                <mxCell id="4" value="api_route&lt;br&gt;Nginx" style="whiteSpace=wrap;html=1;" parent="1" vertex="1">
                    <mxGeometry x="360" y="360" width="120" height="60" as="geometry"/>
                </mxCell>
                <mxCell id="16" style="edgeStyle=orthogonalEdgeStyle;rounded=0;orthogonalLoop=1;jettySize=auto;html=1;exitX=1;exitY=0.5;exitDx=0;exitDy=0;entryX=0;entryY=0.5;entryDx=0;entryDy=0;" parent="1" source="5" target="8" edge="1">
                    <mxGeometry relative="1" as="geometry"/>
                </mxCell>
                <mxCell id="5" value="static_front&lt;br&gt;Nginx" style="whiteSpace=wrap;html=1;" parent="1" vertex="1">
                    <mxGeometry x="360" y="240" width="120" height="60" as="geometry"/>
                </mxCell>
                <mxCell id="21" style="edgeStyle=orthogonalEdgeStyle;rounded=0;orthogonalLoop=1;jettySize=auto;html=1;exitX=1;exitY=0.25;exitDx=0;exitDy=0;entryX=0;entryY=0.5;entryDx=0;entryDy=0;" parent="1" source="7" target="9" edge="1">
                    <mxGeometry relative="1" as="geometry"/>
                </mxCell>
                <mxCell id="22" style="edgeStyle=orthogonalEdgeStyle;rounded=0;orthogonalLoop=1;jettySize=auto;html=1;exitX=1;exitY=0.75;exitDx=0;exitDy=0;entryX=0;entryY=0.5;entryDx=0;entryDy=0;" parent="1" source="7" target="10" edge="1">
                    <mxGeometry relative="1" as="geometry"/>
                </mxCell>
                <mxCell id="7" value="api&lt;br&gt;php7.0-fpm" style="whiteSpace=wrap;html=1;" parent="1" vertex="1">
                    <mxGeometry x="570" y="360" width="120" height="60" as="geometry"/>
                </mxCell>
                <mxCell id="8" value="dynamic_front&lt;br&gt;php7.0-fpm" style="whiteSpace=wrap;html=1;" parent="1" vertex="1">
                    <mxGeometry x="570" y="240" width="120" height="60" as="geometry"/>
                </mxCell>
                <mxCell id="9" value="user_db&lt;br&gt;MySQL 7.0" style="whiteSpace=wrap;html=1;" parent="1" vertex="1">
                    <mxGeometry x="850" y="320" width="120" height="60" as="geometry"/>
                </mxCell>
                <mxCell id="10" value="graph_db&lt;br&gt;Redis" style="whiteSpace=wrap;html=1;" parent="1" vertex="1">
                    <mxGeometry x="850" y="410" width="120" height="60" as="geometry"/>
                </mxCell>
                <mxCell id="13" style="edgeStyle=orthogonalEdgeStyle;rounded=0;orthogonalLoop=1;jettySize=auto;html=1;entryX=0;entryY=0.5;entryDx=0;entryDy=0;" parent="1" target="4" edge="1">
                    <mxGeometry relative="1" as="geometry">
                        <mxPoint x="310" y="270" as="sourcePoint"/>
                        <mxPoint x="340" y="389.5" as="targetPoint"/>
                        <Array as="points">
                            <mxPoint x="310" y="390"/>
                        </Array>
                    </mxGeometry>
                </mxCell>
                <mxCell id="14" value="projectpath.org/" style="text;html=1;align=center;verticalAlign=middle;resizable=0;points=[];autosize=1;" parent="1" vertex="1">
                    <mxGeometry x="250" y="240" width="100" height="20" as="geometry"/>
                </mxCell>
                <mxCell id="15" value="projectpath.org/api" style="text;html=1;align=center;verticalAlign=middle;resizable=0;points=[];autosize=1;" parent="1" vertex="1">
                    <mxGeometry x="190" y="340" width="110" height="20" as="geometry"/>
                </mxCell>
                <mxCell id="17" value="*.php" style="text;html=1;align=center;verticalAlign=middle;resizable=0;points=[];autosize=1;" parent="1" vertex="1">
                    <mxGeometry x="500" y="240" width="40" height="20" as="geometry"/>
                </mxCell>
                <mxCell id="18" style="edgeStyle=orthogonalEdgeStyle;rounded=0;orthogonalLoop=1;jettySize=auto;html=1;exitX=1;exitY=0.5;exitDx=0;exitDy=0;entryX=0;entryY=0.5;entryDx=0;entryDy=0;" parent="1" edge="1">
                    <mxGeometry relative="1" as="geometry">
                        <mxPoint x="480" y="390" as="sourcePoint"/>
                        <mxPoint x="570" y="390" as="targetPoint"/>
                    </mxGeometry>
                </mxCell>
                <mxCell id="19" value="*.php" style="text;html=1;align=center;verticalAlign=middle;resizable=0;points=[];autosize=1;" parent="1" vertex="1">
                    <mxGeometry x="500" y="360" width="40" height="20" as="geometry"/>
                </mxCell>
                <mxCell id="23" value="Request for User Graphs" style="text;html=1;align=center;verticalAlign=middle;resizable=0;points=[];autosize=1;" parent="1" vertex="1">
                    <mxGeometry x="690" y="450" width="150" height="20" as="geometry"/>
                </mxCell>
                <mxCell id="24" value="Request for User Accounts" style="text;html=1;align=center;verticalAlign=middle;resizable=0;points=[];autosize=1;" parent="1" vertex="1">
                    <mxGeometry x="685" y="320" width="160" height="20" as="geometry"/>
                </mxCell>
                <mxCell id="25" value="Helm&lt;br&gt;Prometheus&lt;br&gt;Istio" style="text;html=1;align=center;verticalAlign=middle;resizable=0;points=[];autosize=1;" parent="1" vertex="1">
                    <mxGeometry x="205" y="400" width="80" height="50" as="geometry"/>
                </mxCell>
                <mxCell id="26" value="Nginx&lt;br&gt;PHP&lt;br&gt;MySQL&lt;br&gt;Redis" style="rounded=0;whiteSpace=wrap;html=1;" parent="1" vertex="1">
                    <mxGeometry x="80" y="500" width="70" height="80" as="geometry"/>
                </mxCell>
            </root>
        </mxGraphModel>
    </diagram>
</mxfile>